<!DOCTYPE svg PUBLIC "-//W3C//DTD SVG 20010904//EN" "http://www.w3.org/TR/2001/REC-SVG-20010904/DTD/svg10.dtd">
<svg version="1.0" xmlns="http://www.w3.org/2000/svg" width="657px" height="317px" viewBox="0 0 6570 3170" preserveAspectRatio="xMidYMid meet">
<g id="layer101" fill="#7f03b5" stroke="none">
<path d="M1930 2085 l0 -155 105 0 105 0 0 35 0 35 -75 0 c-73 0 -75 1 -75 25 0 24 2 25 75 25 l75 0 0 35 0 35 -75 0 -75 0 0 30 0 30 75 0 75 0 0 30 0 30 -105 0 -105 0 0 -155z"/>
<path d="M2200 2130 l0 -110 30 0 c17 0 30 5 30 11 0 8 4 8 15 -1 20 -17 88 -15 99 3 8 12 13 12 40 -4 34 -19 78 -16 98 8 7 9 14 55 16 109 l4 94 -36 0 -36 0 0 -80 c0 -65 -3 -82 -16 -87 -35 -13 -49 10 -52 91 l-3 76 -29 0 -30 0 0 -79 c0 -85 -6 -97 -46 -87 -23 6 -24 10 -24 86 l0 80 -30 0 -30 0 0 -110z"/>
<path d="M2757 2188 c-20 -64 -67 -240 -67 -250 0 -13 57 -9 67 5 6 6 13 27 16 45 11 56 39 144 44 139 3 -3 9 -25 14 -49 24 -107 40 -148 58 -148 29 0 39 20 62 119 12 51 23 91 25 89 2 -3 11 -35 19 -74 32 -138 27 -129 68 -132 22 -2 37 1 37 8 0 5 -9 43 -21 83 -11 39 -30 105 -41 145 l-20 72 -38 0 -38 0 -22 -97 -23 -98 -26 95 -26 95 -36 3 c-35 3 -36 2 -52 -50z"/>
<path d="M3140 2085 l0 -155 105 0 105 0 0 35 0 35 -70 0 c-68 0 -70 1 -70 25 0 24 2 25 70 25 l70 0 0 35 0 35 -70 0 -70 0 0 30 0 30 70 0 70 0 0 30 0 30 -105 0 -105 0 0 -155z"/>
<path d="M3410 2084 l0 -156 101 4 c96 3 102 4 125 31 29 34 31 78 4 102 -19 18 -19 18 6 48 30 36 26 70 -12 105 -22 20 -36 22 -125 22 l-99 0 0 -156z m180 81 c21 -26 -5 -45 -61 -45 -48 0 -49 1 -49 30 0 29 1 30 49 30 31 0 53 -5 61 -15z m-5 -140 c0 -17 -8 -20 -52 -23 -51 -3 -53 -2 -53 23 0 25 2 26 53 23 44 -3 52 -6 52 -23z"/>
<path d="M1400 1878 c-19 -5 -57 -15 -85 -23 -27 -8 -84 -24 -125 -35 -157 -43 -147 -37 -154 -89 -3 -25 -10 -107 -16 -181 -5 -74 -21 -254 -35 -400 -14 -146 -25 -289 -25 -317 l0 -53 479 0 c264 0 482 3 484 8 5 7 4 19 -43 552 -42 481 -34 438 -84 451 -56 16 -162 45 -243 68 -98 28 -114 30 -153 19z"/>
<path d="M4937 1793 c-4 -3 -7 -13 -7 -20 0 -10 9 -12 35 -7 29 5 35 3 35 -10 0 -9 -6 -16 -12 -15 -28 3 -38 -2 -38 -20 0 -13 -10 -20 -31 -25 -43 -8 -95 -64 -109 -117 -32 -114 52 -219 175 -219 50 0 77 10 113 43 28 26 28 45 -2 58 -20 9 -29 7 -54 -11 -46 -34 -90 -29 -129 14 -40 43 -42 79 -10 127 37 55 103 64 144 19 17 -17 21 -18 50 -3 31 15 32 16 16 40 -17 26 -50 46 -98 58 l-30 8 25 6 c31 8 39 47 13 66 -19 15 -75 20 -86 8z"/>
<path d="M1971 1694 c-67 -24 -76 -37 -48 -69 l23 -27 34 21 c62 37 155 18 120 -24 -7 -8 -19 -15 -26 -15 -8 0 -22 -4 -32 -9 -9 -6 -30 -12 -45 -16 -63 -13 -97 -88 -67 -146 24 -44 116 -63 191 -38 56 19 62 30 35 64 -20 25 -26 27 -39 17 -27 -22 -76 -32 -103 -20 -13 6 -24 15 -24 19 0 15 43 36 96 49 81 18 116 69 94 136 -22 64 -116 90 -209 58z"/>
<path d="M2964 1691 c-23 -10 -54 -36 -70 -57 -25 -32 -29 -46 -29 -100 0 -108 63 -171 173 -173 55 -1 106 20 128 54 17 26 17 28 -1 41 -22 16 -55 18 -55 4 0 -20 -61 -38 -94 -29 -53 15 -71 43 -71 105 0 47 4 59 24 75 45 37 103 37 138 0 17 -18 19 -18 51 -1 l32 18 -28 30 c-48 51 -128 65 -198 33z"/>
<path d="M5626 1703 c-72 -20 -126 -91 -126 -165 0 -106 71 -178 177 -178 60 0 105 21 139 66 26 33 29 46 29 108 0 80 -22 124 -76 152 -32 16 -112 26 -143 17z m103 -79 c80 -57 48 -193 -46 -196 -66 -2 -103 38 -103 112 0 79 86 128 149 84z"/>
<path d="M2240 1530 l0 -170 93 0 c114 0 155 17 176 73 12 32 12 44 1 77 -18 54 -46 70 -125 70 l-65 0 0 60 0 60 -40 0 -40 0 0 -170z m184 -26 c19 -7 21 -45 4 -62 -7 -7 -34 -12 -60 -12 l-48 0 0 40 0 40 44 0 c24 0 51 -3 60 -6z"/>
<path d="M2570 1530 l0 -170 120 0 120 0 0 35 0 35 -80 0 -80 0 0 35 0 35 80 0 80 0 0 30 0 30 -80 0 -80 0 0 40 0 40 80 0 80 0 0 30 0 30 -120 0 -120 0 0 -170z"/>
<path d="M3230 1530 l0 -170 40 0 40 0 0 170 0 170 -40 0 -40 0 0 -170z"/>
<path d="M3380 1623 c99 -271 94 -263 149 -263 l46 0 36 98 c20 53 48 128 63 167 14 38 26 71 26 72 0 2 -17 3 -38 3 -41 0 -62 -14 -62 -42 0 -16 -9 -18 -71 -18 -69 0 -70 0 -80 30 -10 27 -15 30 -54 30 l-44 0 29 -77z m190 -53 c0 -5 -10 -35 -21 -67 l-22 -57 -17 45 c-36 93 -37 89 14 89 25 0 46 -4 46 -10z"/>
<path d="M3740 1530 l0 -170 40 0 40 0 0 140 0 140 70 0 70 0 0 30 0 30 -110 0 -110 0 0 -170z"/>
<path d="M4020 1530 l0 -170 35 0 c30 0 35 3 35 23 0 12 2 81 3 152 4 163 3 165 -39 165 l-34 0 0 -170z"/>
<path d="M4160 1668 c1 -25 19 -58 75 -133 l74 -100 -74 -3 -75 -3 0 -34 0 -35 125 0 125 0 0 36 c0 30 -13 54 -75 135 -41 53 -75 100 -75 103 0 3 34 6 75 6 l75 0 0 30 0 30 -125 0 -125 0 0 -32z"/>
<path d="M4447 1688 c5 -7 35 -84 68 -170 l58 -158 48 0 c41 0 49 3 54 23 3 12 10 31 15 42 5 11 22 54 38 95 16 41 39 99 50 128 l21 52 -45 0 c-41 0 -46 -3 -55 -30 -11 -29 -12 -30 -79 -30 -66 0 -68 1 -80 30 -11 27 -17 30 -57 30 -35 0 -43 -3 -36 -12z m221 -116 c-1 -4 -12 -31 -22 -60 -11 -29 -23 -52 -26 -52 -7 0 -40 89 -40 108 0 8 16 12 46 12 25 0 44 -4 42 -8z"/>
<path d="M5140 1696 c0 -2 26 -71 59 -152 32 -82 61 -157 64 -166 5 -14 18 -18 57 -18 34 0 50 4 50 13 0 7 27 80 60 162 33 83 60 153 60 158 0 4 -20 7 -44 7 -41 0 -45 -2 -51 -29 -6 -29 -7 -29 -76 -30 -69 0 -70 0 -81 29 -9 27 -14 30 -54 30 -24 0 -44 -2 -44 -4z m215 -138 c-4 -13 -14 -42 -22 -66 l-16 -43 -13 30 c-7 17 -17 47 -23 66 l-9 35 44 0 c42 0 45 -2 39 -22z"/>
<path d="M5230 1336 c0 -1 5 -17 11 -35 15 -41 52 -52 80 -22 21 22 39 20 39 -5 0 -8 9 -14 20 -14 24 0 26 26 4 58 -18 26 -50 28 -77 5 -18 -17 -19 -17 -32 0 -10 14 -45 25 -45 13z"/>
</g>
<g id="layer102" fill="#ac5fcc" stroke="none">
<path d="M2333 2165 c0 -44 2 -61 4 -37 2 23 2 59 0 80 -2 20 -4 1 -4 -43z"/>
<path d="M2463 2165 c0 -44 2 -61 4 -37 2 23 2 59 0 80 -2 20 -4 1 -4 -43z"/>
<path d="M2523 2160 c0 -47 2 -66 4 -42 2 23 2 61 0 85 -2 23 -4 4 -4 -43z"/>
<path d="M3503 2183 c15 -2 37 -2 50 0 12 2 0 4 -28 4 -27 0 -38 -2 -22 -4z"/>
<path d="M3202 2148 l-2 -38 78 2 77 2 -72 3 -72 4 -4 32 c-4 31 -4 31 -5 -5z"/>
<path d="M3585 2131 c-6 -6 -32 -12 -60 -14 l-50 -3 51 -2 c35 -1 55 3 64 13 14 16 10 21 -5 6z"/>
<path d="M2028 2053 c23 -2 59 -2 80 0 20 2 1 4 -43 4 -44 0 -61 -2 -37 -4z"/>
<path d="M3200 2025 l0 -35 78 2 77 2 -72 3 c-70 4 -73 5 -73 28 0 23 3 24 73 28 l72 3 -77 2 -78 2 0 -35z"/>
<path d="M3490 2054 c35 -7 98 -9 94 -2 -3 5 -29 7 -57 7 -29 -1 -45 -3 -37 -5z"/>
<path d="M2028 1993 c23 -2 59 -2 80 0 20 2 1 4 -43 4 -44 0 -61 -2 -37 -4z"/>
<path d="M3503 1993 c15 -2 37 -2 50 0 12 2 0 4 -28 4 -27 0 -38 -2 -22 -4z"/>
<path d="M1519 1859 c36 -10 67 -17 69 -15 5 5 -102 36 -120 35 -7 0 16 -9 51 -20z"/>
<path d="M1320 1858 c-19 -6 -30 -12 -24 -14 5 -3 28 2 50 10 45 17 26 19 -26 4z"/>
<path d="M1225 1830 c-13 -5 -14 -9 -5 -9 8 0 24 4 35 9 13 5 14 9 5 9 -8 0 -24 -4 -35 -9z"/>
<path d="M1611 1836 c2 -2 18 -6 34 -10 22 -5 26 -4 15 4 -14 9 -59 15 -49 6z"/>
<path d="M1695 1810 c11 -5 27 -9 35 -9 9 0 8 4 -5 9 -11 5 -27 9 -35 9 -9 0 -8 -4 5 -9z"/>
<path d="M1080 1790 c-13 -9 -13 -10 0 -9 8 0 24 4 35 9 l20 9 -20 0 c-11 0 -27 -4 -35 -9z"/>
<path d="M1320 1763 c-164 -45 -195 -56 -196 -73 -14 -115 -43 -438 -54 -589 -5 -74 -13 -156 -16 -183 l-7 -48 197 0 196 0 0 60 0 60 153 0 153 0 -3 38 c-9 89 4 82 -158 82 l-145 0 0 60 0 60 146 0 146 0 -6 23 c-3 12 -6 41 -6 65 l0 42 -140 0 -140 0 0 89 0 89 58 -14 c31 -7 60 -13 64 -14 3 0 9 -13 13 -30 6 -30 8 -30 71 -30 l64 0 0 34 c0 70 -12 125 -29 130 -9 2 -66 19 -128 37 l-112 34 -3 55 -3 55 -115 -32z"/>
<path d="M1783 1786 c21 -6 42 -18 47 -26 8 -13 10 -12 10 2 0 16 -48 39 -79 37 -9 -1 1 -6 22 -13z"/>
<path d="M1040 1755 c0 -14 2 -25 4 -25 2 0 6 11 8 25 3 14 1 25 -3 25 -5 0 -9 -11 -9 -25z"/>
<path d="M1025 1622 c-4 -57 -5 -105 -2 -108 7 -7 21 180 15 198 -3 7 -9 -33 -13 -90z"/>
<path d="M1843 1680 c0 -25 2 -35 4 -22 2 12 2 32 0 45 -2 12 -4 2 -4 -23z"/>
<path d="M2244 1530 c0 -96 2 -136 3 -87 2 48 2 126 0 175 -1 48 -3 8 -3 -88z"/>
<path d="M3234 1530 c0 -96 2 -136 3 -87 2 48 2 126 0 175 -1 48 -3 8 -3 -88z"/>
<path d="M1909 1644 c17 -35 40 -49 54 -34 10 10 9 11 -2 5 -10 -6 -22 1 -39 21 -14 18 -20 21 -13 8z"/>
<path d="M1850 1577 l5 -52 3 44 c2 24 0 47 -5 52 -4 4 -6 -15 -3 -44z"/>
<path d="M2330 1514 c35 -7 98 -9 94 -2 -3 5 -29 7 -57 7 -29 -1 -45 -3 -37 -5z"/>
<path d="M1863 1465 c0 -27 2 -38 4 -22 2 15 2 37 0 50 -2 12 -4 0 -4 -28z"/>
<path d="M4380 1460 c12 -16 24 -30 26 -30 3 0 -4 14 -16 30 -12 17 -24 30 -26 30 -3 0 4 -13 16 -30z"/>
<path d="M5552 1405 c15 -16 29 -27 31 -24 3 2 -10 15 -27 28 l-31 24 27 -28z"/>
<path d="M2917 1399 c12 -12 25 -20 28 -17 3 3 -7 13 -22 23 l-28 17 22 -23z"/>
<path d="M1873 1350 c0 -30 2 -43 4 -27 2 15 2 39 0 55 -2 15 -4 2 -4 -28z"/>
<path d="M1003 1325 c0 -27 2 -38 4 -22 2 15 2 37 0 50 -2 12 -4 0 -4 -28z"/>
<path d="M5357 1283 c3 -15 13 -23 27 -22 15 0 16 2 6 6 -8 4 -20 13 -27 22 -10 14 -11 13 -6 -6z"/>
<path d="M1883 1235 c-1 -27 3 -79 7 -115 7 -61 7 -62 7 -15 1 28 -3 79 -7 115 -7 61 -7 62 -7 15z"/>
<path d="M993 1215 c0 -27 2 -38 4 -22 2 15 2 37 0 50 -2 12 -4 0 -4 -28z"/>
<path d="M983 1120 c0 -25 2 -35 4 -22 2 12 2 32 0 45 -2 12 -4 2 -4 -23z"/>
<path d="M1902 1005 c0 -27 3 -72 8 -100 7 -48 7 -48 8 -10 0 22 -4 67 -8 100 l-7 60 -1 -50z"/>
<path d="M966 937 c-4 -60 -6 -111 -3 -113 7 -7 20 177 15 202 -2 10 -8 -30 -12 -89z"/>
</g>
<g id="layer103" fill="#dcb0f1" stroke="none">
<path d="M2463 2170 c0 -41 2 -58 4 -37 2 20 2 54 0 75 -2 20 -4 3 -4 -38z"/>
<path d="M2028 2113 c23 -2 59 -2 80 0 20 2 1 4 -43 4 -44 0 -61 -2 -37 -4z"/>
<path d="M3243 2113 c20 -2 54 -2 75 0 20 2 3 4 -38 4 -41 0 -58 -2 -37 -4z"/>
<path d="M3503 2113 c15 -2 37 -2 50 0 12 2 0 4 -28 4 -27 0 -38 -2 -22 -4z"/>
<path d="M3029 1937 c5 -5 24 -7 42 -5 33 3 33 4 -8 8 -23 3 -39 2 -34 -3z"/>
<path d="M1983 1933 c32 -2 81 -2 110 0 29 2 3 3 -58 3 -60 0 -84 -1 -52 -3z"/>
<path d="M2703 1933 c9 -2 25 -2 35 0 9 3 1 5 -18 5 -19 0 -27 -2 -17 -5z"/>
<path d="M3193 1933 c32 -2 81 -2 110 0 29 2 3 3 -58 3 -60 0 -84 -1 -52 -3z"/>
<path d="M3453 1933 c26 -2 68 -2 95 0 26 2 4 3 -48 3 -52 0 -74 -1 -47 -3z"/>
<path d="M1032 1690 c0 -19 2 -27 5 -17 2 9 2 25 0 35 -3 9 -5 1 -5 -18z"/>
<path d="M1843 1685 c0 -22 2 -30 4 -17 2 12 2 30 0 40 -3 9 -5 -1 -4 -23z"/>
<path d="M1325 1650 c-49 -16 -98 -30 -107 -30 -9 0 -20 -5 -23 -10 -3 -6 -13 -86 -21 -178 -8 -92 -19 -211 -24 -266 -6 -54 -10 -116 -10 -137 l0 -39 300 0 300 0 0 38 c0 20 -3 47 -6 60 l-6 22 -230 0 -230 0 6 31 c3 17 6 44 6 60 l0 29 224 0 223 0 -4 53 c-7 87 11 80 -219 74 l-205 -6 7 72 c4 40 8 75 10 78 2 4 34 14 72 23 53 14 74 15 97 6 17 -6 31 -11 33 -10 1 1 15 -1 32 -5 22 -5 30 -13 32 -33 3 -26 5 -27 63 -27 l60 0 -3 70 c-2 39 -7 73 -11 78 -10 10 -207 68 -246 73 -16 2 -70 -10 -120 -26z"/>
<path d="M4092 1640 c0 -19 2 -27 5 -17 2 9 2 25 0 35 -3 9 -5 1 -5 -18z"/>
<path d="M1023 1585 c0 -22 2 -30 4 -17 2 12 2 30 0 40 -3 9 -5 -1 -4 -23z"/>
<path d="M1853 1585 c0 -22 2 -30 4 -17 2 12 2 30 0 40 -3 9 -5 -1 -4 -23z"/>
<path d="M1873 1360 c0 -25 2 -35 4 -22 2 12 2 32 0 45 -2 12 -4 2 -4 -23z"/>
<path d="M1892 1140 c0 -19 2 -27 5 -17 2 9 2 25 0 35 -3 9 -5 1 -5 -18z"/>
<path d="M982 1130 c0 -19 2 -27 5 -17 2 9 2 25 0 35 -3 9 -5 1 -5 -18z"/>
<path d="M1902 1020 c0 -19 2 -27 5 -17 2 9 2 25 0 35 -3 9 -5 1 -5 -18z"/>
<path d="M1913 910 c0 -25 2 -35 4 -22 2 12 2 32 0 45 -2 12 -4 2 -4 -23z"/>
<path d="M1920 807 c0 -15 -41 -17 -482 -20 l-483 -2 483 -3 c427 -2 483 0 489 13 3 9 3 19 -1 22 -3 4 -6 -1 -6 -10z"/>
</g>
<g id="layer104" fill="#fdfbfd" stroke="none">
<path d="M1370 1659 c-36 -10 -90 -26 -119 -36 l-55 -18 -28 -270 c-15 -148 -27 -287 -28 -307 l0 -38 301 0 301 0 -7 53 c-4 28 -9 55 -12 60 -2 4 -105 7 -229 7 l-225 0 7 58 c3 31 8 59 10 61 2 2 100 3 219 3 l216 -1 -3 57 -3 57 -207 3 -208 2 0 75 c0 84 1 85 89 104 39 8 70 8 118 0 58 -10 66 -14 75 -40 9 -27 13 -29 64 -29 l54 0 0 63 c0 34 -4 67 -8 73 -6 9 -134 52 -204 68 -14 3 -32 8 -40 10 -7 2 -42 -5 -78 -15z"/>
</g>


</svg>